<?xml version="1.0" encoding="utf-8"?>
<!-- Generator: Adobe Illustrator 26.0.1, SVG Export Plug-In . SVG Version: 6.00 Build 0)  -->
<!DOCTYPE svg PUBLIC "-//W3C//DTD SVG 1.1//EN" "http://www.w3.org/Graphics/SVG/1.1/DTD/svg11.dtd" [
	<!ENTITY ns_extend "http://ns.adobe.com/Extensibility/1.0/">
	<!ENTITY ns_ai "http://ns.adobe.com/AdobeIllustrator/10.0/">
	<!ENTITY ns_graphs "http://ns.adobe.com/Graphs/1.0/">
	<!ENTITY ns_vars "http://ns.adobe.com/Variables/1.0/">
	<!ENTITY ns_imrep "http://ns.adobe.com/ImageReplacement/1.0/">
	<!ENTITY ns_sfw "http://ns.adobe.com/SaveForWeb/1.0/">
	<!ENTITY ns_custom "http://ns.adobe.com/GenericCustomNamespace/1.0/">
	<!ENTITY ns_adobe_xpath "http://ns.adobe.com/XPath/1.0/">
]>
<svg version="1.1" id="Layer_1" xmlns:x="&ns_extend;" xmlns:i="&ns_ai;" xmlns:graph="&ns_graphs;"
	 xmlns="http://www.w3.org/2000/svg" xmlns:xlink="http://www.w3.org/1999/xlink" x="0px" y="0px" width="293.8px" height="18px"
	 viewBox="0 0 293.8 18" style="enable-background:new 0 0 293.8 18;" xml:space="preserve">
<style type="text/css">
	.st0{fill:#FFFFFF;stroke:#E0E0E0;stroke-width:0.67;}
	.st1{fill:#4E4E4E;}
	.st2{opacity:0.94;fill-rule:evenodd;clip-rule:evenodd;fill:#2A2C83;enable-background:new    ;}
	.st3{fill-rule:evenodd;clip-rule:evenodd;fill:#097A44;}
	.st4{fill-rule:evenodd;clip-rule:evenodd;fill:#F46F20;}
	.st5{fill-rule:evenodd;clip-rule:evenodd;fill:#184977;}
	.st6{fill:#FFFFFF;stroke:#184977;}
	.st7{fill:#007BDB;}
	.st8{fill:#E42B00;}
	.st9{fill-rule:evenodd;clip-rule:evenodd;fill:#1740CE;}
	.st10{fill:#CC0000;}
	.st11{fill:#FF9900;}
	.st12{fill-rule:evenodd;clip-rule:evenodd;fill:#F16D27;}
	.st13{fill:#1A1F71;}
	.st14{fill-rule:evenodd;clip-rule:evenodd;fill:#097939;}
	.st15{fill-rule:evenodd;clip-rule:evenodd;fill:#ED752E;}
	.st16{fill-rule:evenodd;clip-rule:evenodd;fill:#747474;}
	.st17{fill:#2A6DB5;}
	.st18{fill:#FFFFFF;}
</style>
<metadata>
	<sfw  xmlns="&ns_sfw;">
		<slices></slices>
		<sliceSourceBounds  bottomLeftOrigin="true" height="17.3" width="293.3" x="0.3" y="0.3"></sliceSourceBounds>
	</sfw>
</metadata>
<path class="st0" d="M292.3,0.7h-34c-0.3,0-0.5,0.1-0.7,0.3c-0.2,0.2-0.3,0.4-0.3,0.7v14.7c0,0.3,0.1,0.5,0.3,0.7
	c0.2,0.2,0.4,0.3,0.7,0.3h34c0.3,0,0.5-0.1,0.7-0.3c0.2-0.2,0.3-0.4,0.3-0.7V1.7c0-0.3-0.1-0.5-0.3-0.7
	C292.9,0.8,292.6,0.7,292.3,0.7L292.3,0.7z"/>
<path class="st1" d="M272.9,8h-0.5l-1.4-2.3V8h-0.6V4.8h0.6l1.4,2.3V4.8h0.5V8z M275.4,6.6h-1.3v1h1.5V8h-2.1V4.8h2.1v0.5h-1.5v0.9
	h1.3V6.6z M278.4,5.2h-1V8h-0.6V5.2h-1V4.8h2.5L278.4,5.2z M270.3,13V9.8h1.1c0.3,0,0.6,0.1,0.8,0.2c0.1,0.1,0.2,0.2,0.2,0.3
	c0,0.1,0.1,0.2,0.1,0.4c0,0.1,0,0.3-0.1,0.4c-0.1,0.1-0.2,0.2-0.3,0.3c0.2,0,0.3,0.1,0.4,0.3c0.1,0.1,0.2,0.3,0.1,0.5
	c0,0.1,0,0.3-0.1,0.4c-0.1,0.1-0.1,0.2-0.2,0.3c-0.2,0.2-0.5,0.3-0.8,0.2H270.3z M270.9,11.6v1h0.6c0.1,0,0.3,0,0.4-0.1
	c0,0,0.1-0.1,0.1-0.2c0-0.1,0-0.1,0-0.2c0-0.1,0-0.1,0-0.2c0-0.1-0.1-0.1-0.1-0.2s-0.1-0.1-0.2-0.1c-0.1,0-0.1,0-0.2,0H270.9z
	 M270.9,11.1h0.5c0.1,0,0.3,0,0.4-0.1c0,0,0.1-0.1,0.1-0.1c0-0.1,0-0.1,0-0.2c0-0.1,0-0.1,0-0.2c0-0.1-0.1-0.1-0.1-0.2
	c-0.1-0.1-0.3-0.1-0.4-0.1h-0.5V11.1z M275,12.3h-1.2l-0.3,0.7h-0.6l1.2-3.2h0.5l1.2,3.2h-0.6L275,12.3z M273.9,11.8h0.9l-0.5-1.3
	L273.9,11.8z M278.7,13h-0.6l-1.4-2.3V13h-0.6V9.8h0.6l1.4,2.3V9.8h0.6V13z M280.3,11.6l-0.4,0.4v1h-0.6V9.8h0.6v1.5l0.3-0.4
	l0.9-1.1h0.7l-1.2,1.4l1.3,1.8h-0.7L280.3,11.6z M282.8,13h-0.5V9.8h0.5V13z M286,13h-0.5l-1.5-2.3V13h-0.6V9.8h0.6l1.4,2.3V9.8h0.6
	V13z M289.1,12.6c-0.1,0.2-0.3,0.3-0.5,0.4c-0.2,0.1-0.5,0.1-0.7,0.1c-0.2,0-0.5-0.1-0.7-0.2c-0.2-0.1-0.4-0.3-0.5-0.5
	c-0.1-0.2-0.2-0.5-0.2-0.8v-0.2c0-0.4,0.1-0.8,0.4-1.1c0.1-0.1,0.3-0.3,0.4-0.3c0.2-0.1,0.4-0.1,0.6-0.1c0.3,0,0.6,0.1,0.8,0.3
	c0.2,0.2,0.4,0.5,0.4,0.8h-0.5c0-0.1,0-0.2-0.1-0.2c0-0.1-0.1-0.1-0.2-0.2c-0.1-0.1-0.1-0.1-0.2-0.1c-0.1,0-0.2,0-0.2,0
	c-0.1,0-0.2,0-0.3,0.1s-0.2,0.1-0.2,0.2c-0.1,0.2-0.2,0.5-0.2,0.8v0.2c0,0.3,0.1,0.6,0.2,0.8c0.1,0.1,0.2,0.2,0.3,0.2
	c0.1,0.1,0.2,0.1,0.3,0.1c0.1,0,0.2,0,0.3,0c0.1,0,0.2-0.1,0.3-0.2v-0.6h-0.7v-0.4h1.2L289.1,12.6z"/>
<path class="st1" d="M263.8,4c0.3,0,0.5,0.1,0.7,0.3s0.3,0.4,0.3,0.7v1c0.6,0.1,1.2,0.3,1.6,0.8c0.4,0.5,0.6,1.1,0.6,1.7v2.6
	c0,0.3-0.1,0.6-0.2,0.9c-0.1,0.3-0.3,0.6-0.5,0.8c-0.2,0.2-0.5,0.4-0.8,0.5c-0.3,0.1-0.6,0.2-0.9,0.2c-0.3,0-0.6-0.1-0.9-0.2
	s-0.6-0.3-0.8-0.5c-0.2-0.2-0.4-0.5-0.5-0.8c-0.1-0.3-0.2-0.6-0.2-0.9V8.5c0-0.6,0.2-1.2,0.6-1.7c0.4-0.5,1-0.7,1.6-0.8V5
	c0-0.1,0-0.1,0-0.2c0-0.1-0.1-0.1-0.1-0.2c0,0-0.1-0.1-0.2-0.1c-0.1,0-0.1,0-0.2,0c-0.1,0-0.1,0-0.2,0c-0.1,0-0.1,0.1-0.2,0.1
	c0,0.1-0.1,0.1-0.1,0.2c0,0.1,0,0.1,0,0.2v0.2c0,0.3-0.1,0.5-0.3,0.7c-0.2,0.2-0.4,0.3-0.7,0.3c-0.3,0-0.5-0.1-0.7-0.3
	c-0.2-0.2-0.3-0.4-0.3-0.7c0,0,0-0.1,0-0.1c0,0,0-0.1,0.1-0.1c0,0,0.1,0,0.1,0c0,0,0.1,0,0.1,0c0,0,0.1,0,0.1,0.1c0,0,0,0.1,0,0.1
	c0,0.1,0,0.2,0,0.2c0,0.1,0.1,0.1,0.1,0.2c0.1,0.1,0.1,0.1,0.2,0.1c0.1,0,0.1,0,0.2,0c0.1,0,0.2,0,0.2,0c0.1,0,0.1-0.1,0.2-0.1
	c0-0.1,0.1-0.1,0.1-0.2c0-0.1,0-0.1,0-0.2V5c0-0.3,0.1-0.5,0.3-0.7C263.3,4.1,263.6,4,263.8,4L263.8,4z M264.6,7c0,0-0.1,0-0.1,0
	c0,0-0.1,0-0.1,0.1c0,0,0,0.1-0.1,0.1c0,0,0,0.1,0,0.1v1.2c0,0,0,0.1,0,0.1c0,0,0,0.1,0.1,0.1c0,0,0.1,0.1,0.1,0.1c0,0,0.1,0,0.1,0
	h0.1l0.1-0.1c0,0,0.1-0.1,0.1-0.1c0,0,0-0.1,0-0.1V7.4c0,0,0-0.1,0-0.1c0,0,0-0.1-0.1-0.1l-0.1-0.1C264.7,7.1,264.6,7.1,264.6,7
	L264.6,7z"/>
<path class="st0" d="M251.7,0.7h-30c-0.3,0-0.5,0.1-0.7,0.3c-0.2,0.2-0.3,0.4-0.3,0.7v14.7c0,0.3,0.1,0.5,0.3,0.7
	c0.2,0.2,0.4,0.3,0.7,0.3h30c0.3,0,0.5-0.1,0.7-0.3c0.2-0.2,0.3-0.4,0.3-0.7V1.7c0-0.3-0.1-0.5-0.3-0.7
	C252.2,0.8,251.9,0.7,251.7,0.7L251.7,0.7z"/>
<path class="st2" d="M225.3,10.6c0,0,0.1-0.6,0.5-2c0.3-1.1,0.6-2.1,0.6-2.2l0.1-0.3h1.2c1.4,0,1.6,0,1.8,0.2c0.4,0.2,0.5,0.5,0.4,1
	c-0.1,0.4-0.4,0.8-0.8,1.1c-0.1,0.1-0.2,0.1-0.2,0.2c0,0,0,0.1,0.1,0.2c0.1,0.1,0.1,0.1,0.2,0.2c0.1,0.3,0.1,0.5,0,0.8
	c0,0.2-0.1,0.4-0.1,0.6v0.3h-0.6c-0.2,0-0.4,0-0.6,0c-0.1-0.1-0.1-0.2,0-0.6c0.1-0.4,0.1-0.6,0-0.7c-0.1-0.1-0.2-0.2-0.6-0.2
	S227,9,227,9s-0.1,0.2-0.3,0.9l-0.2,0.6H226C225.8,10.6,225.6,10.6,225.3,10.6L225.3,10.6z M228.3,8.1c0.3-0.1,0.4-0.3,0.4-0.6
	c0-0.1,0-0.1,0-0.2c-0.1-0.1-0.3-0.1-0.8-0.1h-0.4l-0.1,0.2c-0.1,0.2-0.1,0.4-0.2,0.7c0,0.1,0,0.1,0.1,0.1
	C227.8,8.2,228.1,8.2,228.3,8.1L228.3,8.1z M230.3,10.7c-0.2-0.1-0.3-0.2-0.4-0.3c-0.1-0.3,0-0.8,0.4-2.3c0.1-0.3,0.2-0.6,0.2-0.6
	c0,0,0.1,0,0.5,0c0.2,0,0.3,0,0.5,0h0.1l-0.1,0.3c-0.2,0.6-0.4,1.4-0.4,1.7c0,0.2,0,0.3,0,0.3c0,0.1,0.4,0.2,0.6,0.1
	s0.3-0.3,0.8-1.9c0-0.2,0.1-0.3,0.2-0.4l0.1-0.1h0.5c0.4,0,0.5,0,0.5,0c0,0-0.6,2.2-0.8,3.1v0.1h-1c0-0.1,0-0.1,0.1-0.1
	c0.1-0.3,0-0.3-0.4,0c-0.2,0.2-0.5,0.3-0.8,0.3C230.6,10.8,230.4,10.8,230.3,10.7L230.3,10.7z M233.6,10.6c0.1-0.8,0.3-1.5,0.6-2.2
	l0.6-2.2h1c1.3,0,1.6,0,1.8,0.2c0.2,0.1,0.3,0.2,0.4,0.4c0.1,0.2,0.1,0.4,0.1,0.6c0,0.2,0,0.4-0.1,0.5c-0.1,0.3-0.3,0.6-0.5,0.8
	c-0.2,0.2-0.5,0.4-0.8,0.5c-0.2,0-0.5,0.1-0.7,0.1c-0.9,0.1-0.9,0-0.9,0.2c-0.1,0.2-0.1,0.4-0.2,0.7l-0.2,0.6h-0.6
	C234,10.7,233.8,10.7,233.6,10.6L233.6,10.6z M236.3,8.3c0.1,0,0.2,0,0.3-0.1c0.1-0.1,0.2-0.1,0.2-0.2c0.1-0.1,0.1-0.2,0.1-0.3
	c0-0.1,0-0.2,0-0.3c-0.1-0.1-0.2-0.2-0.7-0.2c-0.2,0-0.3,0-0.5,0c-0.1,0.3-0.2,0.6-0.2,0.9c0,0,0,0.1,0,0.1
	C235.8,8.3,236.1,8.3,236.3,8.3L236.3,8.3z M238,10.7c-0.3-0.1-0.4-0.4-0.3-0.9c0.2-0.7,0.5-0.9,1.7-1.1c0.7-0.1,0.9-0.2,1-0.5
	S240.3,8,240,8c-0.1,0-0.2,0-0.3,0c-0.1,0-0.2,0.1-0.2,0.2l-0.1,0.1H239c-0.4,0-0.6,0-0.6-0.1c0.1-0.2,0.2-0.3,0.3-0.5
	c0.2-0.2,0.4-0.3,0.7-0.3c0.6-0.2,1.2-0.2,1.8,0c0.2,0.1,0.3,0.2,0.4,0.4c0.1,0.1,0.1,0.3-0.3,1.5c-0.1,0.6-0.3,1.2-0.3,1.2v0.1
	h-0.4h-0.5H240l-0.1-0.1c-0.1-0.2-0.1-0.2-0.5,0c-0.3,0.1-0.6,0.2-0.9,0.2C238.4,10.8,238.3,10.7,238,10.7L238,10.7z M239.7,10.1
	c0.1-0.1,0.2-0.2,0.3-0.3c0.1-0.1,0.1-0.3,0.1-0.4V9.2h-0.2c-0.3,0-0.6,0.1-0.8,0.3c-0.1,0-0.1,0.1-0.2,0.1c0,0.1-0.1,0.1-0.1,0.2
	c0,0.1,0,0.2,0.1,0.2C239.2,10.1,239.4,10.1,239.7,10.1L239.7,10.1z M241.3,12.1c-0.1,0-0.1-0.1,0-0.4c0.1-0.3,0.1-0.4,0.4-0.5
	c0.3,0,0.4-0.1,0.5-0.2c0.1-0.7,0.1-1.5,0-2.2c0-0.4,0-0.8,0-1.3c0,0,0.2,0,0.6,0h0.5v1c0,0.3,0,0.7,0,1c0.1,0.1,0.3-0.3,1.1-1.8
	l0.1-0.2h0.5c0.2,0,0.3,0,0.5,0c0,0-0.7,1.3-1.4,2.5c-1,1.7-1.2,2-1.7,2.1C242,12.1,241.7,12.1,241.3,12.1L241.3,12.1z"/>
<path class="st3" d="M245.8,11.7l1.4-5.1l1.3,2.6L245.8,11.7z"/>
<path class="st4" d="M244.9,11.7l1.4-5.1l1.3,2.6L244.9,11.7z"/>
<path class="st0" d="M214.4,1h-28.9c-0.3,0-0.6,0.1-0.9,0.4s-0.4,0.5-0.4,0.9v13.5c0,0.3,0.1,0.6,0.4,0.9s0.5,0.4,0.9,0.4h28.9
	c0.3,0,0.6-0.1,0.9-0.4s0.4-0.5,0.4-0.9V2.2c0-0.3-0.1-0.6-0.4-0.9S214.8,1,214.4,1z"/>
<path class="st0" d="M178.3,0.7h-30c-0.3,0-0.5,0.1-0.7,0.3c-0.2,0.2-0.3,0.4-0.3,0.7v14.7c0,0.3,0.1,0.5,0.3,0.7
	c0.2,0.2,0.4,0.3,0.7,0.3h30c0.3,0,0.5-0.1,0.7-0.3c0.2-0.2,0.3-0.4,0.3-0.7V1.7c0-0.3-0.1-0.5-0.3-0.7
	C178.9,0.8,178.6,0.7,178.3,0.7L178.3,0.7z"/>
<path class="st5" d="M160.3,4h6.1c1.3,0,2.6,0.5,3.5,1.5c0.9,0.9,1.5,2.2,1.5,3.5c0,1-0.3,2-0.8,2.8c-0.5,0.8-1.3,1.5-2.2,1.8
	c-0.6,0.3-1.3,0.4-1.9,0.4h-6.1V4z"/>
<path class="st6" d="M160.3,13.5c0.9,0,1.8-0.3,2.5-0.8c0.7-0.5,1.3-1.2,1.6-2c0.3-0.8,0.4-1.7,0.2-2.6c-0.2-0.9-0.6-1.7-1.2-2.3
	c-0.6-0.6-1.4-1-2.3-1.2c-0.9-0.2-1.8-0.1-2.6,0.3c-0.8,0.3-1.5,0.9-2,1.7c-0.5,0.7-0.8,1.6-0.8,2.5c0,0.6,0.1,1.2,0.4,1.7
	c0.2,0.5,0.6,1,1,1.5c0.4,0.4,0.9,0.7,1.5,1C159.1,13.4,159.7,13.5,160.3,13.5L160.3,13.5z"/>
<path class="st5" d="M162.3,9c0-0.5-0.1-1-0.4-1.4c-0.3-0.4-0.7-0.7-1.1-0.9v4.5c0.4-0.2,0.8-0.5,1.1-0.9
	C162.2,10,162.3,9.5,162.3,9L162.3,9z M159.8,11.2V6.7c-0.5,0.2-0.8,0.5-1.1,0.9c-0.3,0.4-0.4,0.9-0.4,1.4s0.1,1,0.4,1.4
	C159,10.8,159.3,11.1,159.8,11.2L159.8,11.2z"/>
<path class="st0" d="M141.7,0.7h-30c-0.3,0-0.5,0.1-0.7,0.3c-0.2,0.2-0.3,0.4-0.3,0.7v14.7c0,0.3,0.1,0.5,0.3,0.7
	c0.2,0.2,0.4,0.3,0.7,0.3h30c0.3,0,0.5-0.1,0.7-0.3c0.2-0.2,0.3-0.4,0.3-0.7V1.7c0-0.3-0.1-0.5-0.3-0.7
	C142.2,0.8,141.9,0.7,141.7,0.7L141.7,0.7z"/>
<path class="st0" d="M105,0.7H75c-0.3,0-0.5,0.1-0.7,0.3C74.1,1.2,74,1.4,74,1.7v14.7c0,0.3,0.1,0.5,0.3,0.7
	c0.2,0.2,0.4,0.3,0.7,0.3h30c0.3,0,0.5-0.1,0.7-0.3c0.2-0.2,0.3-0.4,0.3-0.7V1.7c0-0.3-0.1-0.5-0.3-0.7C105.5,0.8,105.3,0.7,105,0.7
	L105,0.7z"/>
<path class="st7" d="M86.5,14c1,0,2-0.3,2.8-0.8c0.8-0.5,1.5-1.3,1.8-2.2C91.5,10,91.6,9,91.4,8c-0.2-1-0.7-1.9-1.4-2.6
	c-0.7-0.7-1.6-1.2-2.6-1.4c-1-0.2-2-0.1-2.9,0.3c-0.9,0.4-1.7,1-2.2,1.8C81.8,7,81.5,8,81.5,9c0,1.3,0.5,2.6,1.5,3.5
	C83.9,13.5,85.1,14,86.5,14L86.5,14z"/>
<path class="st8" d="M93.5,14c1,0,1.9-0.3,2.8-0.9c0.8-0.6,1.4-1.3,1.8-2.3C98.5,10,98.6,9,98.4,8c-0.2-1-0.7-1.9-1.4-2.5
	c-0.7-0.7-1.6-1.2-2.6-1.4c-1-0.2-2-0.1-2.9,0.3c-0.9,0.4-1.7,1-2.2,1.8C88.8,7,88.5,8,88.5,9c0,0.7,0.1,1.3,0.4,1.9
	c0.3,0.6,0.6,1.2,1.1,1.6c0.5,0.5,1,0.8,1.6,1.1C92.2,13.9,92.9,14,93.5,14L93.5,14z"/>
<path class="st9" d="M90,12.6c0.9-1,1.4-2.2,1.5-3.6c-0.1-1.3-0.6-2.6-1.5-3.6c-0.5,0.5-0.9,1-1.1,1.6c-0.3,0.6-0.4,1.3-0.4,2
	c0,0.7,0.1,1.3,0.4,2C89.1,11.6,89.5,12.1,90,12.6L90,12.6z"/>
<path class="st0" d="M68.3,0.7h-30c-0.3,0-0.5,0.1-0.7,0.3c-0.2,0.2-0.3,0.4-0.3,0.7v14.7c0,0.3,0.1,0.5,0.3,0.7
	c0.2,0.2,0.4,0.3,0.7,0.3h30c0.3,0,0.5-0.1,0.7-0.3c0.2-0.2,0.3-0.4,0.3-0.7V1.7c0-0.3-0.1-0.5-0.3-0.7C68.8,0.8,68.6,0.7,68.3,0.7
	L68.3,0.7z"/>
<path class="st10" d="M49.8,14c1,0,1.9-0.3,2.8-0.9c0.8-0.6,1.4-1.3,1.8-2.3C54.7,10,54.8,9,54.6,8c-0.2-1-0.7-1.9-1.4-2.5
	c-0.7-0.7-1.6-1.2-2.6-1.4c-1-0.2-2-0.1-2.9,0.3c-0.9,0.4-1.7,1-2.2,1.8C45,7,44.7,8,44.7,9c0,0.7,0.1,1.3,0.4,1.9
	c0.3,0.6,0.6,1.2,1.1,1.6c0.5,0.5,1,0.8,1.6,1.1C48.5,13.9,49.1,14,49.8,14L49.8,14z"/>
<path class="st11" d="M56.9,14c1,0,2-0.3,2.8-0.8c0.8-0.5,1.5-1.3,1.8-2.2C61.9,10,62,9,61.8,8c-0.2-1-0.7-1.9-1.4-2.6
	c-0.7-0.7-1.6-1.2-2.6-1.4c-1-0.2-2-0.1-2.9,0.3c-0.9,0.4-1.7,1-2.2,1.8C52.2,7,51.9,8,51.9,9c0,1.3,0.5,2.6,1.5,3.5
	C54.3,13.5,55.5,14,56.9,14L56.9,14z"/>
<path class="st12" d="M53.3,12.6c0.9-1,1.4-2.2,1.5-3.6c-0.1-1.3-0.6-2.6-1.5-3.6c-0.5,0.5-0.9,1-1.1,1.6c-0.3,0.6-0.4,1.3-0.4,2
	c0,0.7,0.1,1.3,0.4,1.9C52.5,11.6,52.8,12.1,53.3,12.6L53.3,12.6z"/>
<path class="st0" d="M31.7,0.7h-30C1.4,0.7,1.2,0.8,1,1C0.8,1.2,0.7,1.4,0.7,1.7v14.7c0,0.3,0.1,0.5,0.3,0.7
	c0.2,0.2,0.4,0.3,0.7,0.3h30c0.3,0,0.5-0.1,0.7-0.3c0.2-0.2,0.3-0.4,0.3-0.7V1.7c0-0.3-0.1-0.5-0.3-0.7C32.2,0.8,31.9,0.7,31.7,0.7
	L31.7,0.7z"/>
<path class="st13" d="M14,5.8l-2.8,6.6H9.4L8.1,7.1C8.1,7,8,6.9,7.9,6.8C7.9,6.7,7.8,6.6,7.7,6.5C7.1,6.3,6.6,6.1,6,6V5.8h2.9
	c0.2,0,0.4,0.1,0.5,0.2c0.1,0.1,0.2,0.3,0.3,0.5l0.7,3.8l1.8-4.5H14z M21,10.2c0-1.7-2.4-1.8-2.4-2.6c0-0.2,0.2-0.5,0.7-0.5
	c0.6-0.1,1.1,0,1.7,0.3L21.3,6c-0.5-0.2-1-0.3-1.6-0.3c-1.7,0-2.9,0.9-2.9,2.2c0,0.9,0.8,1.5,1.5,1.8c0.6,0.3,0.9,0.5,0.9,0.8
	c0,0.4-0.5,0.6-1,0.6c-0.6,0-1.2-0.1-1.7-0.4l-0.3,1.4c0.6,0.2,1.2,0.4,1.9,0.3C19.9,12.5,21,11.6,21,10.2L21,10.2z M25.4,12.3H27
	l-1.4-6.6h-1.4c-0.2,0-0.3,0-0.4,0.1c-0.1,0.1-0.2,0.2-0.3,0.4l-2.5,6.1h1.8l0.4-1h2.2L25.4,12.3z M23.5,10l0.9-2.5l0.5,2.5H23.5z
	 M16.4,5.8L15,12.4h-1.7l1.4-6.6H16.4z"/>
<g>
	<path class="st14" d="M206.9,11.5l2.8-2.5l-1.3-2.6L206.9,11.5z"/>
	<path class="st15" d="M205.9,11.5l2.8-2.5l-1.3-2.6L205.9,11.5z"/>
	<path class="st16" d="M192.8,6.4l-1.2,4.1l4.1,0l1.1-4.2h1l-1.4,4.8c-0.1,0.2-0.3,0.3-0.4,0.3h-5.3c-0.3,0-0.5-0.3-0.4-0.6l1.3-4.6
		L192.8,6.4z M205.5,6.4h1l-1.5,5.2H204L205.5,6.4z M198,8.5l5.2,0l0.3-1.1h-5.3l0.3-1l5.7-0.1c0.4,0,0.6,0.3,0.5,0.6l-0.5,2
		c-0.1,0.3-0.5,0.6-0.8,0.6h-4.7l-0.6,2.1h-1L198,8.5z"/>
</g>
<path class="st17" d="M134.4,14.7h-15.2c-1.1,0-1.9-0.9-1.9-1.9V5.4c0-1.1,0.9-1.9,1.9-1.9h15.2c1.1,0,1.9,0.9,1.9,1.9v7.3
	C136.3,13.8,135.5,14.7,134.4,14.7z"/>
<path class="st18" d="M123.9,10.4V10h-1.4v1.8h1.4v-0.4h-1v-0.3h1v-0.4h-1v-0.3L123.9,10.4z M125.2,10.9l0.7-0.9h-0.5l-0.4,0.5
	l-0.4-0.6H124l0.7,0.9l-0.7,0.9h0.5l0.4-0.6l0.4,0.6h0.5L125.2,10.9z M126.9,10h-1v1.7h0.4v-0.6h0.5c0.2,0,0.3,0,0.4-0.2
	c0.1-0.1,0.2-0.3,0.2-0.4c0-0.2-0.1-0.3-0.2-0.4C127.2,10.1,127.1,10,126.9,10L126.9,10z M126.9,10.8h-0.5v-0.4h0.5
	c0.1,0,0.2,0.1,0.2,0.2S127,10.8,126.9,10.8L126.9,10.8z M128.8,11.2c0.3,0,0.5-0.3,0.5-0.6c0-0.3-0.3-0.5-0.6-0.5h-1v1.7h0.4v-0.6
	h0.2l0.5,0.6h0.5L128.8,11.2z M128.7,10.8h-0.5v-0.4h0.5c0.1,0,0.1,0,0.2,0c0,0,0.1,0.1,0.1,0.1c0,0.1,0,0.1-0.1,0.1
	C128.8,10.8,128.7,10.8,128.7,10.8L128.7,10.8z M131,10.4V10h-1.4v1.7h1.4v-0.4h-1v-0.3h1v-0.4h-1v-0.3L131,10.4z M132.1,10.7h-0.4
	c-0.1,0-0.1,0-0.2-0.1s0-0.1,0-0.2s0.1-0.1,0.2-0.1h0.8l0.2-0.4h-0.9c-0.2,0-0.3,0-0.4,0.1s-0.2,0.3-0.2,0.4c0,0.1,0,0.3,0.2,0.4
	c0.1,0.1,0.3,0.1,0.4,0.1h0.4c0.1,0,0.1,0,0.2,0.1c0,0.1,0,0.1,0,0.2c0,0.1-0.1,0.1-0.2,0.1h-0.9v0.4h0.9c0.2,0,0.3,0,0.4-0.2
	s0.2-0.3,0.2-0.4c0-0.1,0-0.3-0.2-0.4C132.4,10.7,132.3,10.7,132.1,10.7L132.1,10.7z M133.3,10.4h0.8l0.2-0.4l0,0h-0.9
	c-0.2,0-0.3,0-0.4,0.1c-0.1,0.1-0.2,0.3-0.2,0.4c0,0.1,0,0.3,0.2,0.4c0.1,0.1,0.3,0.1,0.4,0.1h0.4c0.1,0,0.1,0,0.2,0.1
	c0,0.1,0,0.1,0,0.2s-0.1,0.1-0.2,0.1h-0.9v0.4h0.9c0.3,0,0.5-0.1,0.6-0.4V11c-0.1-0.2-0.3-0.3-0.5-0.3h-0.4c-0.1,0-0.1,0-0.2-0.1
	c0-0.1,0-0.1,0-0.2S133.3,10.4,133.3,10.4L133.3,10.4z"/>
<path class="st18" d="M120.6,6.7h-0.6l-0.8,1.8h0.5l0.2-0.4h0.8l0.1,0.4h0.5L120.6,6.7z M120.1,7.8l0.2-0.4l0.1-0.3l0.1,0.3l0.2,0.4
	H120.1z M123,6.7l-0.3,1l-0.1,0.2l0,0l-0.1-0.2l-0.3-1h-0.7v1.8h0.4V7.3V7.1l0,0l0.1,0.3l0.4,1.2h0.4l0.4-1.2l0.1-0.3l0,0v0.3v1.2
	h0.4V6.7H123z M125.4,7.1V6.7H124v1.8h1.4V8.1h-1V7.8h1V7.4h-1V7.1L125.4,7.1z M126.8,7.8c0.3,0,0.5-0.3,0.5-0.6
	c0-0.2-0.1-0.3-0.2-0.4s-0.3-0.2-0.4-0.1h-0.9v1.8h0.4V7.8h0.2l0.5,0.6h0.5L126.8,7.8z M126.6,7.5h-0.5V7.1h0.5c0.1,0,0.1,0,0.2,0
	c0,0,0.1,0.1,0.1,0.1c0,0.1,0,0.1-0.1,0.1C126.7,7.5,126.7,7.5,126.6,7.5L126.6,7.5z M127.5,6.7v1.8h0.4V6.7H127.5z M129,7.1h0.5
	V6.7H129c-0.2,0-0.5,0.1-0.6,0.2c-0.2,0.2-0.2,0.4-0.2,0.6v0c0,0.2,0,0.5,0.2,0.6s0.4,0.3,0.6,0.2h0l0.2-0.4H129
	c-0.1,0-0.3,0-0.3-0.1c-0.1-0.1-0.1-0.2-0.1-0.4v0c0-0.1,0-0.3,0.1-0.3C128.8,7.1,128.9,7.1,129,7.1L129,7.1z M130.5,6.7h-0.6
	l-0.8,1.8h0.5l0.1-0.4h0.8l0.1,0.4h0.5L130.5,6.7z M129.9,7.8l0.2-0.4l0.1-0.3l0,0l0.1,0.3l0.2,0.4H129.9z M132.6,6.7v0.9v0.2l0,0
	l-0.1-0.2l-0.6-0.9h-0.5v1.8h0.4v-1V7.3l0,0l0.1,0.2l0.7,1h0.5V6.7H132.6z"/>
</svg>
